<svg xmlns="http://www.w3.org/2000/svg" style="display: none;">

    <symbol id="icon-chevron-down" viewBox="0 0 512 512">
      <path d="m116 193c11-11 26-12 40 0l100 96 100-96c14-12 29-11 40 0 12 12 11 31 0 42-10 10-120 115-120 115-5 6-13 8-20 8-7 0-15-2-20-8 0 0-110-105-120-115-11-11-12-30 0-42z"/>
    </symbol>

    <symbol id="icon-shield" viewBox="0 0 512 512">
    	<path d="M264.2,7.8L256,4l-8.2,3.8C182.3,37.1,113.4,58,42.8,70v119.7c0,72.1,22.5,142.4,64.4,201.1
    		C144.5,443.3,196.2,484,256,508c59.8-24,111.5-64.7,148.9-117.2c41.9-58.7,64.4-129,64.4-201.1V70C398.6,58,329.7,37.1,264.2,7.8z
    		 M430.5,189.7c0,64-20,126.5-57.2,178.6c-30,42.1-70.5,75.6-117.3,97.4c-46.8-21.8-87.2-55.3-117.3-97.4
    		c-37.2-52.1-57.2-114.7-57.2-178.6V102C141.4,89.7,200,71.2,256,46.5c56,24.6,114.6,43.1,174.5,55.4V189.7z"/>
      <path d="M206.2,228.6c-4.2-4.2-9.5-6.4-15.4-6.4c-5.8,0-11.4,2.4-15.4,6.4c-4.2,4-6.4,9.3-6.4,15.1
    		c0,5.8,2.4,11.4,6.4,15.1l42.4,42.6c4.2,4,9.5,6.4,15.4,6.4c5.8,0,11.4-2.4,15.4-6.4l87.7-87.9c4.2-3.7,6.4-9,6.6-15.1
    		c0-5.8-2.4-11.4-6.4-15.1c-4.2-4-9.5-6.4-15.4-6.4c-5.6,0-11.1,2.4-15.1,6.4l-72.6,72.6L206.2,228.6z"/>
    </symbol>

    <symbol id="icon-compass" viewBox="0 0 512 512">
      <path d="m419 93c-42-42-99-67-163-67-127 0-230 103-230 230 0 127 103 230 230 230 64 0 121-25 163-67 42-42 68-99 68-163 0-64-26-121-68-163l0 0z m-29 297c-34 34-82 55-134 55-105 0-189-84-189-189 0-105 84-189 189-189 52 0 100 21 134 55 35 34 56 82 56 134 0 52-21 100-56 134z m-47-268c0 0-1 0-1-1 0 0 0 0 0 0l0 0c-1-2-3-4-5-6l0 0c-2-1-4-1-6-1 0 0-1 0-1 0l0 0c0 0-1 0-1 0 0 0 0 0 0 0-3 0-6 1-9 3l0 0c-3 2-6 4-9 7l0 0-77 71c-10 10-18 21-25 33l-1 1c-7 11-12 24-16 37l0 1-23 102c-1 4-1 8-1 12l0 0c0 0 0 0 0 1 0 3 0 6 1 9l0-1c0 0 0 0 1 1 0 0 0 0 0 0l0 0c1 2 3 4 5 6l0 0c2 1 4 1 6 1 0 0 1 0 1 0l0 0 0 0c0 0 1 0 1 0 0 0 0 0 0 0 3 0 6-1 9-3l0 0c3-2 6-4 9-7l0 0 77-71c10-10 18-21 25-33l1-1c6-11 12-24 16-37l0-1 23-102c1-4 1-8 1-12l0 0c0 0 0 0 0-1 0-3 0-6-2-9l0 1z m-67 146c-4 6-12 11-20 11-13 0-23-10-23-23 0-13 10-23 23-23 4 0 8 1 12 3l0 0c6 4 11 12 11 20 0 4-1 8-3 12z m-68-39l0-1 0 1z m96 54l0 1 0-1z"/>
    </symbol>

    <symbol id="icon-document" viewBox="0 0 512 512">
      <path d="m148 242l152 0c0 0 0 0 0 0 9 0 17-8 17-17 0-10-8-18-17-18 0 0 0 0 0 0l-152 0c0 0 0 0 0 0-9 0-17 8-17 18 0 9 8 17 17 17 0 0 0 0 0 0z m210 51l-210 0c0 0 0 0 0 0-9 0-17 7-17 17 0 10 8 17 17 17 0 0 0 0 0 0l210 0c0 0 1 0 1 0 9 0 17-7 17-17 0-10-8-17-17-17 0 0-1 0-1 0z m0 85l-210 0c0 0 0 0 0 0-9 0-17 8-17 17 0 10 8 18 17 18 0 0 0 0 0 0l210 0c10-1 17-8 17-18 0-9-7-17-17-17z m123-222c-1-4-3-7-5-9l-139-138c-1-1-2-2-3-3-3-4-9-6-14-6l-201 0c0 0 0 0 0 0-13 0-25 3-36 7l1 0c-16 7-30 18-39 32l0 0c-10 14-16 32-16 50 0 0 0 0 0 0l0 334c0 0 0 0 0 0 0 12 3 24 8 35l-1 0c7 16 19 29 32 38l1 1c14 9 31 15 50 15 0 0 0 0 0 0l274 0c0 0 0 0 0 0 13 0 25-3 36-7l-1 0c16-7 30-18 39-32l0 0c10-14 16-32 16-50 0 0 0 0 0 0l0-260c0-3-1-5-2-8l0 1z m-141-59l0-27 74 73-48 0c0 0 0 0 0 0-3 0-7-1-10-2l0 0c-4-2-8-6-11-10l0 0c-3-4-5-9-5-14 0 0 0 0 0 0z m98 344c-4 9-10 17-18 22l0 0c-7 5-17 8-27 8 0 0 0 0 0 0l-274 0c0 0 0 0 0 0-7 0-14-1-19-4l0 0c-9-4-16-10-21-17l0 0c-5-8-9-17-9-27 0 0 0 0 0 0l0-334c0 0 0 0 0 0 0-7 2-13 4-19l0 0c4-8 10-16 18-21l0 0c7-5 17-8 27-8 0 0 0 0 0 0l180 0 0 76c0 0 0 0 0 0 0 9 2 18 6 26l0 0c5 12 13 22 24 29l0 0c10 7 23 12 37 12l50 0c4 0 15 0 26-1l0 240c0 0 0 0 0 0 0 7-2 13-4 19l0-1z"/>
    </symbol>

    <symbol id="icon-github" viewBox="0 0 512 512">
      <path d="m256 6c-141 0-256 115-256 256 0 113 73 209 175 243 13 3 18-5 18-12 0-6-1-26-1-48-71 16-86-30-86-30-12-30-28-37-28-37-24-16 1-16 1-16 26 2 40 26 40 26 22 40 59 28 74 22 2-17 9-28 16-35-57-6-116-28-116-126 0-28 10-51 26-69-3-6-11-32 3-68 0 0 21-6 70 27 20-6 42-9 64-9 22 0 44 3 64 9 49-33 70-27 70-27 14 36 6 62 3 68 16 18 26 41 26 69 0 98-60 120-117 126 10 8 18 24 18 48 0 34-1 61-1 70 0 7 5 15 18 12 102-34 175-130 175-243 0-141-115-256-256-256z"/>
    </symbol>

    <symbol id="icon-key" viewBox="0 0 512 512">
      <path d="m503 475l0-1-4-80 0 0c0-2 0-3-1-5l0 1c0-3-1-6-3-9l1 1c-2-3-3-5-5-6l-177-177c3-11 4-23 4-35 0-86-69-155-154-155-86 0-155 69-155 155 0 85 69 154 155 154 12 0 24-1 36-4l-1 0 53 53c3 3 6 5 9 6l0 0c2 1 3 1 5 2l0 0c1 0 3 0 4 0l0 0 0 0 7 1 0 5c0 0 0 0 0 0 0 2 1 4 1 6l0 0c0 3 1 5 3 8l0 0c1 2 3 4 4 6l31 30c2 2 6 5 9 6l0 0c2 1 4 1 7 1l0 0c0 2 1 4 1 6l0-1c1 2 1 4 2 6l0 0c1 2 3 4 4 6l37 36c2 3 6 5 9 6l0 0c1 1 3 1 5 1l0 0c1 1 3 1 4 1l0 0 0 0 82 4c0 0 0 0 0 0 2 0 4 0 6 0l-1 0c3-1 6-2 9-3l-1 0c3-2 4-3 6-5 3-3 5-6 6-10l0 0c2-3 2-6 2-10 0 0 0 0 0 0z m-339-190c0 0 0 0 0 0-67 0-122-54-122-121 0-67 55-122 122-122 67 0 121 55 121 122 0 0 0 0 0 0 0 2 0 4 0 5-3 63-53 113-115 116l-1 0c-1 0-3 0-5 0z m234 181l-33-33 2-11c0 0 0-1 0-2 0-9-8-17-17-17-1 0-1 0-2 0l0 0-11 2-26-26 0-19c0-9-7-17-16-17l0 0-21-1-40-41c29-15 52-38 67-66l1-1 164 164 3 71z m-89-186c-2-2-5-3-7-3-6 0-11 5-11 11 0 3 1 5 3 7l119 120c2 2 5 3 8 3 6 0 11-5 11-11 0-3-2-6-4-8z m-166-188c-2 0-4 0-7 0-23 0-42 19-42 42 0 23 19 42 42 42 21 0 39-15 42-35l0 0c1-2 1-5 1-7 0-21-16-38-36-42l0 0z m-27 39c1-10 10-18 20-18 12 0 21 9 21 21 0 12-9 21-21 21 0 0 0 0 0 0-1 0-2 0-3 0l0 0c-10-2-18-11-18-21 0-1 1-2 1-3l0 0z"/>
    </symbol>

    <symbol id="icon-pencil" viewBox="0 0 512 512">
      <path d="m503 120c5-5 8-12 8-19 0-8-3-15-8-20l-66-66c-5-5-12-8-19-8-8 0-15 3-20 8l-51 52 105 104z m-496 286l0 105 105 0 287-287-105-105z"/>
    </symbol>

    <symbol id="icon-terminal" viewBox="0 0 512 512">
      <path d="m439 20l-366 0c-39 1-70 32-70 71l0 330c0 39 31 70 70 71l366 0c39-1 70-32 70-71l0-330c0-39-31-70-70-71z m-366 41l366 0c15 0 27 12 29 27l0 0-424 0c2-15 14-27 29-27z m366 390l-366 0c-16 0-29-14-29-30l0-292 424 0 0 292c0 16-13 30-29 30z m-220-174l0 0 0 0-2-2 0 0-74-67c-5-4-10-7-17-7 0 0 0 0 0 0 0 0 0 0 0 0-7 0-14 4-18 9l0 0c-4 5-6 10-6 17 0 1 0 1 0 2l0 0c0 7 3 12 8 16l0 0 54 48-54 49c-5 4-8 11-8 19 0 13 11 24 24 24 0 0 1 0 1 0l0 0c0 0 0 0 0 0 6 0 12-2 16-6l0 0 0 0 0 0 74-67c5-4 8-11 8-19 0-6-2-11-6-16l0 0z m164 71l-142 0c-1 0-1 0-1 0-14 0-25 11-25 25 0 13 11 25 25 25 0 0 0 0 1 0l142 0c1 0 1 0 1 0 14 0 25-12 25-25 0-14-11-25-25-25 0 0 0 0-1 0z"/>
    </symbol>

    <symbol id="icon-trash" viewBox="0 0 512 512">
      <path d="m104 474c0 0 0 0 0 0 0 20 16 37 36 37l244 0c20 0 36-17 36-37 0 0 0 0 0 0l0 0 14-322-343 0z m231-244c0-11 6-20 16-20 11 0 16 9 16 20l0 204c0 10-5 19-16 19-10 0-16-9-16-19z m-89 0c0-1 0-2 0-3 0-9 7-16 16-17l0 0c10 0 16 9 16 20l0 204c0 10-6 19-16 19-9-1-16-8-16-17 0-1 0-2 0-2l0 0z m-89 0c0-11 6-20 17-20 9 1 16 8 16 17 0 1 0 2 0 3l0 0 0 204c0 0 0 1 0 2 0 9-7 16-16 17l0 0c-11 0-17-9-17-19z m284-169l-105 0 0-42c0-11-5-18-15-18l-118 0c0 0 0 0 0 0-9 0-16 7-16 16 0 1 0 1 0 2l0 0 0 42-103 0c-9 1-16 8-16 17 0 1 0 2 0 2l0 0 0 20c0 10 6 22 16 22l357 0c10 0 16-12 16-22l0-20c-1-11-6-19-16-19z m-134 0l-90 0 0-30 90 0z"/>
    </symbol>

    <symbol id="icon-webhooks" viewBox="0 0 512 512">
      <path d="m495 334c-18-31-51-51-89-51-11 0-22 2-33 6l1-1-87-151c1-4 2-8 2-13 0-19-15-34-34-34-6 0-12 2-17 5l0-1c-10 6-17 17-17 30 0 17 13 32 30 34l0 0 97 167c4 6 10 10 18 10 3 0 7-1 10-3l0 0c9-5 19-8 30-8 0 0 0 0 0 0 12 0 22 3 31 8l0 0c18 11 31 31 31 53 0 11-3 22-8 31l0-1c-11 19-31 31-53 31-13 0-25-3-34-10l0 0c-3-2-7-3-12-3-11 0-20 9-20 20 0 8 4 14 9 17l0 1c16 10 36 16 57 16 56 0 102-45 102-102 0-19-5-36-14-51l0 0z m-309-132l-87 151c-17 2-30 17-30 34 0 12 7 23 17 29l0 0c5 3 11 5 17 5 19 0 34-15 34-34 0-5-1-10-3-14l0 0 97-167c2-3 3-6 3-10 0-8-4-14-10-18l-1 0c-9-5-17-13-22-22l0-1c-5-8-8-19-8-30 0-23 12-42 31-53l0 0c9-5 19-8 30-8 23 0 42 12 53 31l0 0c5 9 8 19 8 30 0 1 0 3 0 4 0 0 0 1 0 1 0 11 9 21 21 21 10 0 19-9 20-20l0 0c0-2 0-4 0-6 0 0 0 0 0 0 0-56-46-102-102-102-56 0-102 46-102 102 0 31 13 58 34 77l0 0z m195 205c6 8 16 14 27 14 18 0 34-16 34-34 0-19-16-34-34-34-12 0-22 5-28 13l0 0-193 0c-11 0-20 10-20 21 0 34-28 61-62 61-33 0-61-27-61-61 0-12 4-24 10-33l0 0c6-9 14-17 24-22l0 0c7-3 12-10 12-18 0-12-10-21-21-21-3 0-6 1-9 3l0-1c-34 18-57 52-57 92 0 56 46 102 102 102 50 0 91-35 100-81l1-1z"/>
    </symbol>

</svg>
