<svg id="Layer_1" data-name="Layer 1" xmlns="http://www.w3.org/2000/svg" viewBox="0 0 211.7 27">
  <title>Artboard 1</title>
  <path d="M139.8,8.7a2.639,2.639,0,0,0-2.8,2.2l5.3.1A2.506,2.506,0,0,0,139.8,8.7Z" fill="none"/>
  <path d="M39.9,8.3a3.454,3.454,0,0,0-2.7,1.4.952.952,0,0,0-.2.7v3.9a1.23,1.23,0,0,0,.7,1.1,4.99,4.99,0,0,0,2.1.5H40a3.552,3.552,0,0,0,3.2-3.8C43.2,9.8,41.9,8.3,39.9,8.3Z" fill="none"/>
  <path d="M55,14.4h0a1.685,1.685,0,0,0,1.7,1.7,2.973,2.973,0,0,0,2.5-1.4V13.1a4.136,4.136,0,0,0-1.9-.5C55.8,12.7,55,13.3,55,14.4Z" fill="none"/>
  <path d="M172.8,8.7a2.639,2.639,0,0,0-2.8,2.2l5.3.1A2.506,2.506,0,0,0,172.8,8.7Z" fill="none"/>
  <path d="M113,8.8c-1.9,0-3.3,1.5-3.3,3.8v.2a3.614,3.614,0,0,0,3.4,3.6,5.374,5.374,0,0,0,2.1-.5,1.23,1.23,0,0,0,.7-1.1V10.9a1.445,1.445,0,0,0-.2-.7A3.777,3.777,0,0,0,113,8.8Z" fill="none"/>
  <path d="M196.8,10.7a.758.758,0,0,0-.2-.4.6.6,0,0,0-.1.4c0,.2-.1.2-.1.3l-.8,2.1h2l-.8-2.1C196.9,10.9,196.8,10.8,196.8,10.7Z" fill="#fff"/>
  <path d="M210.5,6.5H192.3a1.155,1.155,0,0,0-1.2,1.2v9a1.155,1.155,0,0,0,1.2,1.2h18.2a1.216,1.216,0,0,0,1.2-1.2v-9A1.216,1.216,0,0,0,210.5,6.5Zm-11.6,8.9c-.1,0-.2,0-.2-.1l-.2-.2-.5-1.3h-2.6l-.5,1.3a.215.215,0,0,1-.2.2.31.31,0,0,1-.2.1h-.9l2.5-6.3h1.2l2.5,6.3Zm6.6-3.4a1.024,1.024,0,0,1-.5.6,2.01,2.01,0,0,1-.8.4,3.553,3.553,0,0,1-1,.2h-1v2.3H201V9.2h2.1a3.6,3.6,0,0,1,1.1.2,2.01,2.01,0,0,1,.8.4c.2.2.3.4.5.6A2.208,2.208,0,0,1,205.5,12Zm2.8,3.4h-1.2V9.1h1.2Z" fill="#fff"/>
  <path d="M204.1,10.3a.758.758,0,0,0-.4-.2,1.268,1.268,0,0,0-.6-.1h-.9v2.3h.9a1.268,1.268,0,0,0,.6-.1c.1-.1.3-.1.4-.2a.758.758,0,0,0,.2-.4.9.9,0,0,0,.1-.5.9.9,0,0,0-.1-.5C204.3,10.5,204.2,10.4,204.1,10.3Z" fill="#fff"/>
  <path d="M23.9,2.7,15.8.3a8.217,8.217,0,0,0-4.4,0L3.2,2.7A4.264,4.264,0,0,0,0,6.8V20.1a4.507,4.507,0,0,0,3.1,4.2l8.1,2.4a8.217,8.217,0,0,0,4.4,0l8.1-2.4a4.507,4.507,0,0,0,3.1-4.2V6.8A3.9,3.9,0,0,0,23.9,2.7ZM20.2,15.9a1.381,1.381,0,0,1-1,1.3l-5,1.5a1.7,1.7,0,0,1-1.4,0l-3-.9V20a.764.764,0,0,1-.2.5c-.2.1-.2.2-.4.2H9l-1.7-.5a.634.634,0,0,1-.5-.6V9.6a1.612,1.612,0,0,1,.6-1.3A2.148,2.148,0,0,1,8.9,8l4.4,1.3h.3L18.1,8a1.4,1.4,0,0,1,1.4.2,1.855,1.855,0,0,1,.7,1.2Z" fill="#fff"/>
  <path d="M17.3,11.1l-2.9.9a2.775,2.775,0,0,1-1.8,0l-2.9-.9c-.1-.1-.2,0-.2.2v3.6c0,.2.1.2.2.2l3.5,1h0a.638.638,0,0,0,.6,0l3.5-1,.2-.2V11.3A.215.215,0,0,0,17.3,11.1Z" fill="#fff"/>
  <path d="M57.7,6.4a12.718,12.718,0,0,0-3.9.6.569.569,0,0,0-.4.7h0l.2,1a.56.56,0,0,0,.6.5h.2a11.27,11.27,0,0,1,3.2-.5,2.01,2.01,0,0,1,1.3.4,2.246,2.246,0,0,1,.4,1.9,7.613,7.613,0,0,0-2.1-.3c-2.7,0-4.6,1.4-4.6,3.6a3.643,3.643,0,0,0,3.3,3.8h.4a5.6,5.6,0,0,0,3.5-1.3l.2.6a.548.548,0,0,0,.6.4h.8a.56.56,0,0,0,.6-.5h0V11.4C61.7,8.7,61.3,6.4,57.7,6.4Zm1.4,8.4a3.546,3.546,0,0,1-2.5,1.4,1.666,1.666,0,0,1-1.7-1.6v-.1c0-1.1.9-1.8,2.2-1.8a3.2,3.2,0,0,1,1.9.5v1.6Z" fill="#fff"/>
  <path d="M69.6,6.5a8.373,8.373,0,0,0-4,1.4l-.2-.8a.458.458,0,0,0-.5-.4h-.8a.56.56,0,0,0-.6.5h0V17.3a.56.56,0,0,0,.5.6h1.4c.5,0,.7-.2.7-.6V10.6A3.838,3.838,0,0,1,69.2,9c1.5,0,2.3,1,2.3,2.7v5.6a.56.56,0,0,0,.5.6h1.6a.56.56,0,0,0,.6-.5h0V11.8C74.4,8.4,72.6,6.5,69.6,6.5Z" fill="#fff"/>
  <path d="M50.9,15.1h-.3a.56.56,0,0,1-.6-.5h0V2.4a.56.56,0,0,0-.5-.6H47.9a.56.56,0,0,0-.6.5h0V16a1.793,1.793,0,0,0,1.8,1.8h1.7V18a.366.366,0,0,0,.4-.4h0v-2A.35.35,0,0,0,50.9,15.1Z" fill="#fff"/>
  <path d="M82.6,6.5a6.282,6.282,0,0,0-4,1.4l-.2-.8a.458.458,0,0,0-.5-.4h-.8a.56.56,0,0,0-.6.5h0V17.3a.56.56,0,0,0,.5.6h1.4c.5,0,.7-.2.7-.6V10.6A3.838,3.838,0,0,1,82.2,9c1.5,0,2.3,1,2.3,2.7v5.6a.56.56,0,0,0,.5.6h1.6a.56.56,0,0,0,.6-.5h0V11.8C87.4,8.4,85.6,6.5,82.6,6.5Z" fill="#fff"/>
  <path d="M40.3,5.8a5.943,5.943,0,0,0-3.8,1.4l-.1.1-.2-1c-.1-.2-.2-.2-.4-.2H34.7a.634.634,0,0,0-.6.5V23.1a.56.56,0,0,0,.5.6h1.7a.56.56,0,0,0,.6-.5v-.1l.1-5.4a6.109,6.109,0,0,0,3,.8,5.9,5.9,0,0,0,5.8-6.2C45.9,8.5,43.5,5.8,40.3,5.8ZM40,15.9h-.2a5.374,5.374,0,0,1-2.1-.5,1.23,1.23,0,0,1-.7-1.1V10.4a1.445,1.445,0,0,1,.2-.7,3.189,3.189,0,0,1,2.7-1.4c2,0,3.3,1.5,3.3,3.8A3.375,3.375,0,0,1,40,15.9Z" fill="#fff"/>
  <path d="M139.9,6.4h-.1a5.678,5.678,0,0,0-5.8,5.5v.3a5.612,5.612,0,0,0,5.5,5.8h.3a6.456,6.456,0,0,0,4.2-1.4c.2-.2.2-.2.2-.4a.758.758,0,0,0-.2-.4l-.8-1c-.1-.1-.2-.2-.3-.2-.2,0-.3.1-.5.2a4.376,4.376,0,0,1-2.5.8,3.075,3.075,0,0,1-3.1-2.9h7.6a.634.634,0,0,0,.6-.5c0-.2.1-.6.1-.7A5.209,5.209,0,0,0,139.9,6.4ZM137,10.9a2.639,2.639,0,0,1,2.8-2.2,2.506,2.506,0,0,1,2.5,2.3Z" fill="#fff"/>
  <path d="M91.8,6.8H90.2a.56.56,0,0,0-.6.5h0v10a.56.56,0,0,0,.5.6h1.6a.56.56,0,0,0,.6-.5h0V7.4C92.3,7,92.1,6.8,91.8,6.8Z" fill="#fff"/>
  <path d="M172.9,6.4h-.1a5.678,5.678,0,0,0-5.8,5.5v.3a5.612,5.612,0,0,0,5.5,5.8h.3a6.456,6.456,0,0,0,4.2-1.4c.2-.2.2-.2.2-.4a.758.758,0,0,0-.2-.4l-.8-1c-.1-.1-.2-.2-.3-.2-.2,0-.3.1-.5.2a4.376,4.376,0,0,1-2.5.8,3.075,3.075,0,0,1-3.1-2.9h7.6a.634.634,0,0,0,.6-.5c0-.2.1-.6.1-.7A5.277,5.277,0,0,0,172.9,6.4ZM170,10.9a2.639,2.639,0,0,1,2.8-2.2,2.506,2.506,0,0,1,2.5,2.3Z" fill="#fff"/>
  <path d="M166.6,16.6l-.5-1.2-.3-.3h-.2a.367.367,0,0,0-.3.1,4.8,4.8,0,0,1-1.7.5c-.4,0-.9-.1-.9-1l.1-5.4h2.8a.56.56,0,0,0,.6-.5h0V7.3a.56.56,0,0,0-.5-.6h0l-2.9-.1V3.3a.56.56,0,0,0-.5-.6h-1.6a.56.56,0,0,0-.6.5h0L160,6.7h-1a.56.56,0,0,0-.6.5h0V8.5a.56.56,0,0,0,.5.6h0l1.1.1v5.6c0,1.4.3,3.4,3,3.4a8.075,8.075,0,0,0,3.4-.8h0c.2-.1.4-.4.3-.6A.349.349,0,0,0,166.6,16.6Z" fill="#fff"/>
  <path d="M184.9,6.5a5.218,5.218,0,0,0-3.4,1.4l-.2-.7a.675.675,0,0,0-.6-.4H180a.56.56,0,0,0-.6.5h0v9.9a.56.56,0,0,0,.5.6h1.4c.4,0,.8-.1.8-.6v-7a3.127,3.127,0,0,1,2.5-1.3,1.8,1.8,0,0,1,1,.2.349.349,0,0,1,.2.1.55.55,0,0,0,.5-.3l.7-1.4a.446.446,0,0,0,0-.5A4.99,4.99,0,0,0,184.9,6.5Z" fill="#fff"/>
  <path d="M153,6.5a6.708,6.708,0,0,0-4,1.4l-.2-.8a.458.458,0,0,0-.5-.4h-.8a.56.56,0,0,0-.6.5h0V17.3a.56.56,0,0,0,.5.6h1.4c.5,0,.7-.2.7-.6V10.6A3.838,3.838,0,0,1,152.6,9c1.5,0,2.3,1,2.3,2.7v5.6a.56.56,0,0,0,.5.6H157a.56.56,0,0,0,.6-.5h0V11.8C157.7,8.4,156,6.5,153,6.5Z" fill="#fff"/>
  <path d="M100.8,6.5a6.708,6.708,0,0,0-4,1.4l-.2-.8a.458.458,0,0,0-.5-.4h-.8a.56.56,0,0,0-.6.5h0V17.3a.56.56,0,0,0,.5.6h1.4c.5,0,.7-.2.7-.6V10.6A3.838,3.838,0,0,1,100.4,9c1.5,0,2.3,1,2.3,2.7v5.6a.56.56,0,0,0,.5.6h1.6a.56.56,0,0,0,.6-.5h0V11.8C105.6,7.1,102.6,6.5,100.8,6.5Z" fill="#fff"/>
  <path d="M133.2,14.9l-.8-.6c-.2-.1-.2-.2-.4-.2a.764.764,0,0,0-.5.2l-.2.2a3.194,3.194,0,0,1-2.4,1.1h-.1a3.246,3.246,0,0,1-3.1-3.4v-.1A3.244,3.244,0,0,1,129,8.9a2.99,2.99,0,0,1,2.3,1.1.52.52,0,0,0,.4.2c.1,0,.2-.1.3-.2l1-.8c.2-.1.2-.2.2-.4s-.1-.3-.2-.5a5.167,5.167,0,0,0-4.2-2,5.978,5.978,0,0,0-6,5.8,5.847,5.847,0,0,0,6,5.8,4.971,4.971,0,0,0,4.5-2.4h0C133.6,15.4,133.5,15.1,133.2,14.9Z" fill="#fff"/>
  <path d="M91,1.6h-.1a1.666,1.666,0,0,0-1.7,1.6v.1A1.666,1.666,0,0,0,90.8,5h.1a1.839,1.839,0,0,0,1.8-1.7h0A1.685,1.685,0,0,0,91,1.6Z" fill="#fff"/>
  <path d="M118.3,6.8h-1.1c-.2,0-.3.1-.5.3l-.2.8a4.89,4.89,0,0,0-3.8-1.4c-3.2,0-5.7,2.7-5.7,6.3s2.5,6.2,5.8,6.2a7.349,7.349,0,0,0,3-.7v.2a2.355,2.355,0,0,1-.8,2.1,4.2,4.2,0,0,1-3.2,1.1,4.388,4.388,0,0,1-2.7-.9.349.349,0,0,1-.2-.1.52.52,0,0,0-.4.2l-.6,1.2c-.1.2,0,.4.2.6a7.983,7.983,0,0,0,4.5,1.4h.2c3.5-.1,6-2.2,6-5.3V7.2C118.8,7,118.5,6.8,118.3,6.8ZM116,14.9a1.23,1.23,0,0,1-.7,1.1,4.99,4.99,0,0,1-2.1.5,3.421,3.421,0,0,1-3.4-3.6v-.2c0-2.3,1.4-3.8,3.3-3.8a3.454,3.454,0,0,1,2.7,1.4.952.952,0,0,1,.2.7Z" fill="#fff"/>
</svg>
